#!OML:ASF H:\LiuWeirdWalks\Patient Classification 1\Patient 1\Session 1\male.ASF
:FULLY-SPECIFIED
:DEGREES
729
root 1.06419 17.8212 39.8509 0.165996 4.05912 -4.21362
lowerback 0.638703 -1.25399 1.93976
upperback -0.566342 -1.61327 4.49949
thorax -0.863556 -0.804334 3.56081
lowerneck -17.8928 -9.57597 -4.61737
upperneck 16.8707 -13.625 7.80035
head 9.10962 -5.88541 1.54304
rclavicle 8.30237e-015 -1.11319e-014
rhumerus -22.4372 -8.85121 -77.6848
rradius 22.0971
rwrist -0.846674
rhand -16.1421 -1.08081
rfingers 7.12502
rthumb 10.0631 -30.8202
lclavicle 8.30237e-015 -1.11319e-014
lhumerus -31.3661 17.9877 83.4306
lradius 18.4173
lwrist -9.81239
lhand -16.344 -1.70731
lfingers 7.12502
lthumb 9.86831 28.0414
rfemur -17.3029 -4.26754 27.3001
rtibia 30.6682
rfoot -2.49264 -20.8435
rtoes -3.58162
lfemur -10.8745 -1.10599 -7.40876
ltibia 52.9124
lfoot 3.04007 -1.24139
ltoes -24.2766
730
root 1.05403 17.8274 39.8944 0.281667 3.89719 -3.98493
lowerback 0.462041 -1.22229 1.75599
upperback -0.595048 -1.58057 4.41481
thorax -0.792729 -0.78724 3.57189
lowerneck -17.5226 -10.1155 -5.12912
upperneck 16.8174 -14.3807 8.37328
head 9.16319 -6.22207 1.70971
rclavicle 5.6343e-015 -7.95139e-015
rhumerus -22.3435 -8.59747 -77.6578
rradius 22.2471
rwrist -1.1879
rhand -16.1936 -1.03796
rfingers 7.12502
rthumb 10.0134 -30.7798
lclavicle 5.6343e-015 -7.95139e-015
lhumerus -31.6541 18.6126 83.1006
lradius 18.1284
lwrist -10.4372
lhand -15.91 -1.58256
lfingers 7.12502
lthumb 10.287 28.1459
rfemur -17.3091 -4.23434 27.1011
rtibia 30.7889
rfoot -2.7009 -20.7231
rtoes -3.63321
lfemur -11.2108 -1.09159 -7.49276
ltibia 53.2134
lfoot 3.94029 -2.0817
ltoes -24.2311
731
root 1.04531 17.8333 39.9354 0.400858 3.72381 -3.75547
lowerback 0.293937 -1.19935 1.56497
upperback -0.638137 -1.55769 4.33998
thorax -0.740639 -0.774948 3.59807
lowerneck -17.1185 -10.6367 -5.6419
upperneck 16.7668 -15.1092 8.90538
head 9.21492 -6.55232 1.86649
rclavicle 1.10263e-014 -3.89618e-014
rhumerus -22.2623 -8.25776 -77.6406
rradius 22.4272
rwrist -1.59311
rhand -16.2038 -1.016
rfingers 7.12502
rthumb 10.0036 -30.7583
lclavicle 1.10263e-014 -3.89618e-014
lhumerus -31.9805 19.1787 82.7871
lradius 17.9083
lwrist -10.8158
lhand -15.4119 -1.41276
lfingers 7.12502
lthumb 10.7674 28.2913
rfemur -17.3272 -4.1977 26.8981
rtibia 30.9087
rfoot -2.89657 -20.6009
rtoes -3.70394
lfemur -11.5252 -1.11288 -7.59071
ltibia 53.4696
lfoot 4.79239 -2.87499
ltoes -24.1183
732
root 1.03771 17.8386 39.9738 0.519094 3.54497 -3.53645
lowerback 0.17287 -1.19278 1.35671
upperback -0.733379 -1.55165 4.29107
thorax -0.766557 -0.770392 3.66322
lowerneck -16.6005 -11.1235 -6.16271
upperneck 16.7036 -15.784 9.37711
head 9.2407 -6.87014 2.01685
rclavicle 2.20092e-014 1.27222e-014
rhumerus -22.2542 -7.79969 -77.6132
rradius 22.6321
rwrist -2.01609
rhand -16.1662 -1.02239
rfingers 7.12502
rthumb 10.0398 -30.7629
lclavicle 2.20092e-014 1.27222e-014
lhumerus -32.4229 19.6977 82.4749
lradius 17.7547
lwrist -11.0095
lhand -14.8536 -1.21145
lfingers 7.12502
lthumb 11.3059 28.4638
rfemur -17.3516 -4.16114 26.7034
rtibia 31.0213
rfoot -3.07336 -20.474
rtoes -3.80436
lfemur -11.8216 -1.17228 -7.68832
ltibia 53.6949
lfoot 5.59048 -3.61893
ltoes -23.9344
733
root 1.03117 17.8435 40.0098 0.632888 3.36686 -3.32583
lowerback 0.0894497 -1.2049 1.13108
upperback -0.8679 -1.56709 4.26459
thorax -0.851707 -0.775717 3.76329
lowerneck -16.0147 -11.5781 -6.70538
upperneck 16.6657 -16.4121 9.8033
head 9.26357 -7.17529 2.16466
rclavicle 2.42269e-015 1.59028e-015
rhumerus -22.3086 -7.21147 -77.5939
rradius 22.8776
rwrist -2.5265
rhand -16.1104 -1.08281
rfingers 7.12502
rthumb 10.0937 -30.8207
lclavicle 2.42269e-015 1.59028e-015
lhumerus -32.9466 20.1468 82.18
lradius 17.6552
lwrist -11.0113
lhand -14.2704 -1.00086
lfingers 7.12502
lthumb 11.8684 28.6428
rfemur -17.377 -4.12478 26.5139
rtibia 31.1275
rfoot -3.23383 -20.3493
rtoes -3.92847
lfemur -12.0986 -1.27497 -7.78761
ltibia 53.8922
lfoot 6.31505 -4.31504
ltoes -23.7346
734
root 1.02582 17.8483 40.0437 0.74271 3.18051 -3.11494
lowerback 0.0430233 -1.23272 0.879353
upperback -1.0451 -1.60041 4.25889
thorax -0.999038 -0.788658 3.90163
lowerneck -15.3581 -12.0023 -7.29278
upperneck 16.6588 -16.9971 10.2016
head 9.28816 -7.46896 2.31914
rclavicle -6.08778e-015 -1.98785e-014
rhumerus -22.4293 -6.5199 -77.5697
rradius 23.1481
rwrist -3.00987
rhand -16.0181 -1.20132
rfingers 7.12502
rthumb 10.1827 -30.9349
lclavicle -6.08778e-015 -1.98785e-014
lhumerus -33.552 20.5101 81.9134
lradius 17.6027
lwrist -10.8267
lhand -13.6675 -0.774337
lfingers 7.12502
lthumb 12.4497 28.8349
rfemur -17.4035 -4.0862 26.3183
rtibia 31.2298
rfoot -3.39161 -20.2145
rtoes -4.04997
lfemur -12.3507 -1.41472 -7.9003
ltibia 54.0599
lfoot 6.96002 -4.98036
ltoes -23.5657
735
root 1.02177 17.8531 40.0757 0.844114 2.98003 -2.89914
lowerback 0.0182765 -1.26527 0.619724
upperback -1.23903 -1.639 4.2589
thorax -1.17483 -0.803091 4.05157
lowerneck -14.6742 -12.3915 -7.87833
upperneck 16.669 -17.5376 10.5575
head 9.31097 -7.74788 2.46746
rclavicle 1.54058e-015 8.74653e-015
rhumerus -22.582 -5.78141 -77.5488
rradius 23.4372
rwrist -3.46355
rhand -15.9145 -1.34756
rfingers 7.12502
rthumb 10.2827 -31.0762
lclavicle 1.54058e-015 8.74653e-015
lhumerus -34.1882 20.7639 81.692
lradius 17.5967
lwrist -10.5061
lhand -13.0615 -0.552659
lfingers 7.12502
lthumb 13.0339 29.0201
rfemur -17.4266 -4.05049 26.1109
rtibia 31.3295
rfoot -3.54695 -20.06
rtoes -4.1646
lfemur -12.5718 -1.59127 -8.03338
ltibia 54.1959
lfoot 7.54461 -5.61892
ltoes -23.4243
736
root 1.019 17.8577 40.1061 0.945783 2.76485 -2.68149
lowerback -0.0367727 -1.29445 0.378588
upperback -1.40271 -1.67548 4.2507
thorax -1.30319 -0.816573 4.18139
lowerneck -14.074 -12.7622 -8.44265
upperneck 16.7069 -18.0605 10.8953
head 9.35814 -8.0154 2.60397
rclavicle -1.56543e-014 7.15625e-015
rhumerus -22.6768 -5.08431 -77.5376
rradius 23.72
rwrist -3.79999
rhand -15.7994 -1.47074
rfingers 7.12502
rthumb 10.3937 -31.1938
lclavicle -1.56543e-014 7.15625e-015
lhumerus -34.7415 20.863 81.5652
lradius 17.6203
lwrist -10.0126
lhand -12.501 -0.365324
lfingers 7.12502
lthumb 13.5742 29.1722
rfemur -17.458 -4.02076 25.8959
rtibia 31.4304
rfoot -3.70882 -19.8843
rtoes -4.25619
lfemur -12.7702 -1.7918 -8.18101
ltibia 54.2979
lfoot 8.06551 -6.25553
ltoes -23.2989
737
root 1.0177 17.8622 40.1348 1.05065 2.52941 -2.46308
lowerback -0.138364 -1.30781 0.18307
upperback -1.52061 -1.69374 4.22099
thorax -1.36138 -0.822134 4.26079
lowerneck -13.5804 -13.122 -8.9581
upperneck 16.7545 -18.5752 11.2099
head 9.42482 -8.27388 2.72
rclavicle -4.96962e-015 -4.69132e-014
rhumerus -22.6887 -4.46116 -77.5439
rradius 23.9891
rwrist -4.09998
rhand -15.717 -1.53498
rfingers 7.12502
rthumb 10.4732 -31.2541
lclavicle -4.96962e-015 -4.69132e-014
lhumerus -35.1731 20.8012 81.5401
lradius 17.6603
lwrist -9.41286
lhand -11.9871 -0.230067
lfingers 7.12502
lthumb 14.0694 29.2737
rfemur -17.5021 -3.99652 25.6745
rtibia 31.5334
rfoot -3.87607 -19.6827
rtoes -4.32824
lfemur -12.9469 -2.01668 -8.34551
ltibia 54.3643
lfoot 8.54573 -6.8927
ltoes -23.1575
